<svg width="48" height="48" viewBox="0 0 48 48" fill="none" xmlns="http://www.w3.org/2000/svg">
<path d="M32.0026 7.99547H16.0049L16.0436 3.62093C16.0642 1.4556 18.0872 0 20.1024 0H27.9103C29.9229 0 31.9484 1.4556 31.9665 3.61835L32.0026 7.99289V7.99547Z" fill="white"/>
<path d="M16.0051 7.99564L15.9715 12.3753C15.9457 14.2465 14.3382 15.6504 12.6301 15.9963H8.00879L8.03459 11.6269C8.04749 9.34284 10.2614 7.94402 12.3514 7.96209L16.0076 7.99306L16.0051 7.99564Z" fill="white"/>
<path d="M40.0008 16.0019L35.5963 15.9761C33.803 15.9658 32.051 14.1923 32.0355 12.4016L32.002 7.99609L36.1717 8.00384C38.0398 8.00642 39.9673 9.68913 39.9776 11.5964L40.0008 16.0045V16.0019Z" fill="white"/>
<path d="M8.00659 16.0026V31.9961L3.62271 31.9677C1.70298 31.9548 0.232225 30.2231 0 28.4216L0.00516055 19.3396C0.358658 17.6337 1.77523 16.0439 3.62271 16.031L8.00401 16L8.00659 16.0026Z" fill="white"/>
<path d="M40.001 31.9935V16L44.3797 16.0284C46.2298 16.0413 47.6438 17.6363 47.9998 19.337V28.419C47.7882 30.2308 46.3072 31.9522 44.3823 31.9651L40.0036 31.9935H40.001Z" fill="white"/>
<path d="M16.0037 39.9948L12.3655 40.0335C10.1362 40.0567 8.0023 38.5263 8.00489 36.1183V31.9941H12.6365C14.3214 32.3374 15.965 33.7491 15.9779 35.6151L16.0063 39.9948H16.0037Z" fill="white"/>
<path d="M40.0008 31.9941V36.1312C40.0034 38.3508 38.0424 40.0206 35.9085 40.0103L32.002 39.9922L32.0303 35.5841C32.0407 33.9143 33.6766 32.0793 35.3718 32.0561L40.0008 31.9967V31.9941Z" fill="white"/>
<path d="M32.0026 39.9902V44.6022C31.6336 46.4269 30.2428 47.7741 28.3825 48.0012H19.6327C17.7698 47.7741 16.3532 46.432 16.0049 44.6048V39.9954L32.0026 39.9928V39.9902Z" fill="white"/>
</svg>
