<svg width="24" height="24" viewBox="0 0 24 24" fill="none" xmlns="http://www.w3.org/2000/svg">
<path d="M16 22L15 18" stroke="black" stroke-width="1.5" stroke-linecap="round" stroke-linejoin="round"/>
<path d="M19 14C19.2652 14 19.5196 13.8946 19.7071 13.7071C19.8946 13.5196 20 13.2652 20 13V12C20 11.4696 19.7893 10.9609 19.41425858C19.0391 10.2107 18.5304 10 18 10H15C14.7348 10 14.4804 9.89464 14.2929 9.70711C14.1054 9.51957 14 9.26522 14 9V4C14 3.46957 13.7893 2.96086 13.4142 2.58579C13.0391 2.21071 12.5304 2 12 2C11.4696 2 10.9609 2.21071 10.5858 2.58579C10.2107 2.96086 10 3.46957 10 4V9C10 9.26522 9.89464 9.51957 9.70711 9.70711C9.51957 9.89464 9.26522 10 9 10H6C5.46957 10 4.96086 10.2107 4.58579 10.5858C4.21071 10.9609 4 11.4696 4 12V13C4 13.2652 4.10536 13.5196 4.29289 13.7071C4.48043 13.8946 4.73478 14 5 14" stroke="black" stroke-width="1.5" stroke-linecap="round" stroke-linejoin="round"/>
<path d="M19 14H5.00004L3.02703 20.767C2.99181 20.914 2.99038 21.0671 3.02285 21.2148C3.05532 21.3624 3.12084 21.5008 3.2145 21.6195C3.30815 21.7382 3.4275 21.8341 3.56356 21.9C3.69962 21.9659 3.84885 22.0001 4.00004 22H20C20.1512 22.0001 20.3004 21.9659 20.4365 21.9C20.5726 21.8341 20.6919 21.7382 20.7856 21.6195C20.8792 21.5008 20.9448 21.3624 20.9772 21.2148C21.0097 21.0671 21.0083 20.914 20.973 20.767L19 14Z" stroke="black" stroke-width="1.5" stroke-linecap="round" stroke-linejoin="round"/>
<path d="M8 22L9 18" stroke="black" stroke-width="1.5" stroke-linecap="round" stroke-linejoin="round"/>
</svg>
