<svg xmlns="http://www.w3.org/2000/svg" width="14" height="14" viewBox="0 0 14 14" fill="none">
  <path d="M7 9.91699V12.8337" stroke="#A3A3A3" stroke-width="1.16667" stroke-linecap="round" stroke-linejoin="round"/>
  <path d="M5.25008 6.27699C5.24997 6.49404 5.18931 6.70675 5.07492 6.89122C4.96053 7.07568 4.79696 7.22457 4.60258 7.32116L3.56425 7.84616C3.36987 7.94275 3.2063 8.09164 3.09191 8.2761C2.97752 8.46056 2.91686 8.67328 2.91675 8.89033V9.33366C2.91675 9.48837 2.97821 9.63674 3.0876 9.74614C3.197 9.85553 3.34537 9.91699 3.50008 9.91699H10.5001C10.6548 9.91699 10.8032 9.85553 10.9126 9.74614C11.022 9.63674 11.0834 9.48837 11.0834 9.33366V8.89033C11.0833 8.67328 11.0226 8.46056 10.9083 8.2761C10.7939 8.09164 10.6303 7.94275 10.4359 7.84616L9.39758 7.32116C9.20321 7.22457 9.03963 7.07568 8.92524 6.89122C8.81086 6.70675 8.7502 6.49404 8.75008 6.27699V4.08366C8.75008 3.92895 8.81154 3.78058 8.92094 3.67118C9.03033 3.56178 9.17871 3.50033 9.33342 3.50033C9.64283 3.50033 9.93958 3.37741 10.1584 3.15862C10.3772 2.93982 10.5001 2.64308 10.5001 2.33366C10.5001 2.02424 10.3772 1.72749 10.1584 1.5087C9.93958 1.28991 9.64283 1.16699 9.33342 1.16699H4.66675C4.35733 1.16699 4.06058 1.28991 3.84179 1.5087C3.623 1.72749 3.50008 2.02424 3.50008 2.33366C3.623 2.64308 3.84179 2.93982 4.06058 3.15862C4.27937 3.37741 4.57612 3.50033 4.88553 3.50033C5.04024 3.50033 5.18862 3.56178 5.29801 3.67118C5.40741 3.78058 5.46886 3.92895 5.46886 4.08366V6.27699" stroke="#A3A3A3" stroke-width="1.16667" stroke-linecap="round" stroke-linejoin="round"/>
</svg>
